<?xml version="1.0" encoding="utf-8"?>
<!-- Generator: Adobe Illustrator 25.2.1, SVG Export Plug-In . SVG Version: 6.00 Build 0)  -->
<svg version="1.1" id="Layer_1" xmlns="http://www.w3.org/2000/svg" xmlns:xlink="http://www.w3.org/1999/xlink" x="0px" y="0px"
	 viewBox="0 0 230 45" style="enable-background:new 0 0 230 45;" xml:space="preserve">
<style type="text/css">
	.st0{fill:#B0B1B5;}
</style>
<g>
	<path class="st0" d="M15.1,21.6c0-2.4,0.1-3.2,0.4-4.2c0.8-2.5,2.8-3.8,5.5-3.8c2.6,0,4.5,1.3,5.4,3.4c0.1,0.1,0,0.2-0.1,0.3
		l-2.5,1.1c-0.1,0.1-0.3,0-0.3-0.1c-0.4-1-1.2-1.8-2.5-1.8c-1.2,0-2,0.6-2.3,1.7c-0.2,0.6-0.3,1.1-0.3,3.3s0.1,2.8,0.3,3.3
		c0.3,1.1,1.1,1.7,2.3,1.7c1.3,0,2-0.8,2.5-1.7c0.1-0.1,0.2-0.2,0.3-0.1l2.5,1.1c0.1,0,0.2,0.2,0.1,0.3c-0.9,2.2-2.8,3.4-5.4,3.4
		c-2.7,0-4.7-1.3-5.5-3.8C15.2,24.8,15.1,24,15.1,21.6"/>
	<path class="st0" d="M38.8,18.7c0-1.2-0.8-1.9-2.1-1.9H34c-0.1,0-0.1,0-0.1,0.1v3.6c0,0.1,0,0.1,0.1,0.1h2.7
		C37.9,20.6,38.8,19.8,38.8,18.7 M39,29.3c-0.2,0-0.3-0.1-0.3-0.2L36,23.4h-2.1c-0.1,0-0.1,0-0.1,0.1V29c0,0.1-0.1,0.2-0.2,0.2h-2.9
		c-0.1,0-0.2-0.1-0.2-0.2V14c0-0.1,0.1-0.2,0.2-0.2h6.2c3.2,0,5.3,2,5.3,4.8c0,2-1,3.6-2.8,4.3l3.1,6.1c0.1,0.1,0,0.3-0.2,0.3
		C42.3,29.3,39,29.3,39,29.3z"/>
	<path class="st0" d="M54.1,23.5l-1.8-5.4h-0.1l-1.8,5.4H54.1z M50.6,14.1c0-0.1,0.1-0.2,0.3-0.2h2.9c0.2,0,0.3,0.1,0.3,0.2l5.2,15
		c0,0.1,0,0.2-0.2,0.2h-3c-0.2,0-0.3-0.1-0.3-0.2L55,26.4h-5.4l-0.9,2.7c0,0.2-0.1,0.2-0.3,0.2h-3c-0.2,0-0.2-0.1-0.2-0.2L50.6,14.1
		z"/>
	<path class="st0" d="M73.3,29.3c-0.2,0-0.3-0.1-0.3-0.2l-2.7-9.6l0,0l-2.7,9.6c0,0.1-0.1,0.2-0.3,0.2H65c-0.1,0-0.2-0.1-0.3-0.2
		l-4-15c0-0.1,0-0.2,0.2-0.2h2.9c0.2,0,0.3,0.1,0.3,0.2l2.2,9.7l0,0l2.6-9.7c0-0.1,0.1-0.2,0.3-0.2h2c0.1,0,0.2,0.1,0.3,0.2l2.7,9.7
		l0,0l2.1-9.7c0-0.2,0.1-0.2,0.3-0.2h2.9c0.2,0,0.2,0.1,0.2,0.2l-4,15c0,0.1-0.1,0.2-0.3,0.2H73.3z"/>
	<path class="st0" d="M83.7,14.1c0-0.1,0.1-0.2,0.2-0.2h10.8c0.1,0,0.2,0.1,0.2,0.2l-0.6,2.4c0,0.1-0.1,0.2-0.2,0.2h-7
		c-0.1,0-0.1,0-0.1,0.1v3.3c0,0.1,0,0.1,0.1,0.1H93c0.1,0,0.2,0.1,0.2,0.2l-0.6,2.4c0,0.1-0.1,0.2-0.2,0.2h-5.3C87,23,87,23,87,23.1
		v5.8c0,0.1-0.1,0.2-0.2,0.2h-2.9c-0.1,0-0.2-0.1-0.2-0.2C83.7,28.9,83.7,14.1,83.7,14.1z"/>
	<path class="st0" d="M106.3,24.9c0.2-0.5,0.2-1.3,0.2-3.3s-0.1-2.8-0.2-3.3c-0.3-1.1-1.2-1.7-2.4-1.7c-1.3,0-2.1,0.6-2.4,1.7
		c-0.2,0.5-0.3,1.3-0.3,3.3s0.1,2.8,0.3,3.3c0.3,1.1,1.2,1.7,2.4,1.7C105.2,26.6,106,26,106.3,24.9 M98.2,25.8
		c-0.3-1.1-0.4-1.9-0.4-4.2s0.1-3.2,0.4-4.2c0.8-2.5,2.9-3.8,5.6-3.8s4.8,1.3,5.6,3.8c0.3,1.1,0.4,1.9,0.4,4.2s-0.1,3.2-0.4,4.2
		c-0.8,2.5-2.9,3.8-5.6,3.8C101.2,29.6,99,28.3,98.2,25.8"/>
	<path class="st0" d="M122.6,18.7c0-1.2-0.8-1.9-2.1-1.9h-2.7c-0.1,0-0.1,0-0.1,0.1v3.6c0,0.1,0,0.1,0.1,0.1h2.7
		C121.8,20.6,122.6,19.8,122.6,18.7 M122.9,29.3c-0.2,0-0.3-0.1-0.3-0.2l-2.7-5.7h-2.1c-0.1,0-0.1,0-0.1,0.1V29
		c0,0.1-0.1,0.2-0.2,0.2h-2.9c-0.1,0-0.2-0.1-0.2-0.2V14c0-0.1,0.1-0.2,0.2-0.2h6.2c3.2,0,5.3,2,5.3,4.8c0,2-1,3.6-2.8,4.3l3,6.1
		c0.1,0.1,0,0.3-0.2,0.3C126.1,29.3,122.9,29.3,122.9,29.3z"/>
	<path class="st0" d="M133.8,26.3h1.8c1.5,0,2.5-0.5,2.9-1.7c0.2-0.5,0.3-1,0.3-3.1c0-2-0.1-2.6-0.3-3.1c-0.4-1.3-1.3-1.7-2.9-1.7
		h-1.8c-0.1,0-0.1,0-0.1,0.1V26C133.7,26.3,133.7,26.3,133.8,26.3 M130.4,14.1c0-0.1,0.1-0.2,0.2-0.2h5.8c2.7,0,4.6,1.2,5.3,3.5
		c0.3,0.9,0.4,1.7,0.4,4.3s-0.1,3.4-0.4,4.3c-0.7,2.3-2.6,3.5-5.3,3.5h-5.8c-0.1,0-0.2-0.1-0.2-0.2V14.1z"/>
	<path class="st0" d="M170.9,27.5c-0.1-0.1-0.1-0.3,0-0.4l1.7-2c0.1-0.1,0.2-0.1,0.3,0c1,0.8,2.4,1.6,4.1,1.6c1.6,0,2.5-0.8,2.5-1.8
		c0-0.9-0.5-1.5-2.4-1.7l-0.8-0.1c-3.1-0.4-4.9-1.9-4.9-4.6c0-2.8,2.1-4.7,5.5-4.7c2,0,4,0.6,5.3,1.6c0.1,0.1,0.2,0.2,0,0.3
		l-1.4,2.1c-0.1,0.1-0.2,0.1-0.3,0.1c-1.2-0.8-2.3-1.2-3.6-1.2c-1.4,0-2.1,0.7-2.1,1.7c0,0.9,0.6,1.5,2.4,1.7l0.8,0.1
		c3.2,0.4,4.9,1.9,4.9,4.7s-2.1,4.9-6.1,4.9C174.5,29.6,172.1,28.6,170.9,27.5"/>
	<path class="st0" d="M195.1,24.9c0.2-0.5,0.3-1.3,0.3-3.3s-0.1-2.8-0.3-3.3c-0.3-1.1-1.2-1.7-2.4-1.7c-1.3,0-2.1,0.6-2.4,1.7
		c-0.2,0.5-0.3,1.3-0.3,3.3s0.1,2.8,0.3,3.3c0.3,1.1,1.2,1.7,2.4,1.7C194,26.6,194.8,26,195.1,24.9 M187.1,25.8
		c-0.3-1.1-0.4-1.9-0.4-4.2s0.1-3.2,0.4-4.2c0.8-2.5,2.9-3.8,5.6-3.8c2.7,0,4.9,1.3,5.6,3.8c0.3,1.1,0.4,1.9,0.4,4.2
		s-0.1,3.2-0.4,4.2c-0.8,2.5-2.9,3.8-5.6,3.8C190,29.6,187.9,28.3,187.1,25.8"/>
	<path class="st0" d="M203.2,14.1c0-0.1,0.1-0.2,0.2-0.2h2.7c0.2,0,0.3,0.1,0.4,0.2l5.5,9.7h0.1v-9.7c0-0.1,0.1-0.2,0.2-0.2h2.6
		c0.1,0,0.2,0.1,0.2,0.2v15c0,0.1-0.1,0.2-0.2,0.2h-2.7c-0.2,0-0.3-0.1-0.4-0.2l-5.5-9.7h-0.1v9.7c0,0.1-0.1,0.2-0.2,0.2h-2.6
		c-0.1,0-0.2-0.1-0.2-0.2V14.1z"/>
	<path class="st0" d="M151.2,22.7l-0.5-2.7l0,0l-0.5,2.7H151.2z M149.9,17.7c0-0.1,0.1-0.1,0.1-0.1h1.3c0.1,0,0.1,0,0.1,0.1l1.7,7.5
		c0,0.1,0,0.1-0.1,0.1h-1.3c-0.1,0-0.1,0-0.1-0.1l-0.2-1.4H150l-0.3,1.4c0,0.1,0,0.1-0.1,0.1h-1.3c-0.1,0-0.1,0-0.1-0.1L149.9,17.7z
		"/>
	<path class="st0" d="M154.5,17.7c0-0.1,0-0.1,0.1-0.1h1.4c0.1,0,0.1,0,0.2,0.1l1.3,4.9h0.1v-4.9c0-0.1,0-0.1,0.1-0.1h1.1
		c0.1,0,0.1,0,0.1,0.1v7.5c0,0.1,0,0.1-0.1,0.1h-1.4c-0.1,0-0.1,0-0.2-0.1l-1.3-4.9h-0.1v4.9c0,0.1,0,0.1-0.1,0.1h-1.1
		c-0.1,0-0.1,0-0.1-0.1V17.7z"/>
	<path class="st0" d="M162.1,24h0.4c0.4,0,0.6-0.1,0.7-0.5c0.1-0.2,0.1-0.6,0.1-2c0-1.5,0-1.8-0.1-2.1c-0.1-0.3-0.3-0.5-0.7-0.5
		h-0.4c0,0-0.1,0-0.1,0.1L162.1,24L162.1,24 M160.6,17.7c0-0.1,0-0.1,0.1-0.1h2c1.1,0,1.7,0.4,2,1.3c0.1,0.4,0.2,1,0.2,2.6
		s-0.1,2.1-0.2,2.6c-0.3,0.9-0.9,1.3-2,1.3h-2c-0.1,0-0.1,0-0.1-0.1V17.7z"/>
	<rect x="148.1" y="28.7" class="st0" width="16.7" height="0.9"/>
	<rect x="148.1" y="13.5" class="st0" width="16.7" height="0.9"/>
	<polygon class="st0" points="90.4,42.3 92.1,42.3 92.1,41.7 90.4,41.7 90.4,40.5 93.2,40.5 93.2,39.9 89.7,39.9 89.7,44.3 
		93.4,44.3 93.4,43.7 90.4,43.7 	"/>
	<path class="st0" d="M98.5,41.7c-0.2,0-0.4,0-0.6-0.1c-0.5,0-0.9-0.1-1.1-0.2c-0.1-0.1-0.2-0.2-0.2-0.3c0-0.3,0.5-0.6,1.1-0.6
		s1.2,0.2,1.7,0.6l0,0l0.4-0.5l0,0c-0.6-0.5-1.4-0.7-2.1-0.7c-1,0-1.7,0.5-1.7,1.2c0,0.4,0.2,0.7,0.6,0.9s0.9,0.2,1.5,0.3
		c0.1,0,0.2,0,0.3,0c0.6,0,0.9,0.3,0.9,0.7c0,0.5-0.5,0.8-1.3,0.8c-0.6,0-1.3-0.2-1.9-0.7H96l-0.4,0.6l0,0c0.7,0.5,1.4,0.8,2.3,0.8
		c1.3,0,2-0.7,2-1.4C99.9,42.3,99.4,41.8,98.5,41.7"/>
	<polygon class="st0" points="101.8,40.5 103.6,40.5 103.6,44.3 104.3,44.3 104.3,40.5 106.1,40.5 106.1,39.9 101.8,39.9 	"/>
	<path class="st0" d="M109.7,42.8h-1v-2.4h1c0.8,0,1.3,0.5,1.3,1.2C110.9,42.4,110.4,42.8,109.7,42.8 M109.7,39.9h-1.4v3.4h1.4
		c1.1,0,1.8-0.7,1.8-1.7C111.4,40.6,110.7,39.9,109.7,39.9"/>
	<path class="st0" d="M120.4,43.6c0-0.6,0.4-0.7,1.3-1l0.2-0.1c0.9-0.3,1.5-0.5,1.5-1.2s-0.7-1.2-1.7-1.2c-0.7,0-1.3,0.2-2,0.7l0,0
		l0.4,0.5l0,0c0.6-0.4,1.1-0.6,1.6-0.6c0.6,0,1,0.3,1,0.6s-0.4,0.4-1.2,0.7c-0.2,0.1-0.4,0.1-0.6,0.2c-0.9,0.3-1.2,0.7-1.2,1.6
		c0,0,0,0.1,0,0.2c0,0.1,0,0.2,0,0.3v0.1h3.8v-0.6h-3.1C120.4,43.7,120.4,43.6,120.4,43.6"/>
	<path class="st0" d="M128.2,43.8c-1,0-1.7-0.7-1.7-1.6c0-0.9,0.7-1.6,1.7-1.6s1.7,0.7,1.7,1.6C129.9,43.2,129.2,43.8,128.2,43.8
		 M128.2,40c-1.4,0-2.4,0.9-2.4,2.2s1,2.2,2.4,2.2c1.4,0,2.4-0.9,2.4-2.2C130.6,41,129.6,40,128.2,40"/>
	<rect x="132.8" y="40.1" class="st0" width="0.7" height="4.2"/>
	<path class="st0" d="M138.8,43.8c-0.9,0-1.7-0.6-1.9-1.3c0.6-0.4,1.2-0.5,1.8-0.5c0.8,0,1.4,0.4,1.4,0.9
		C140.1,43.3,139.6,43.8,138.8,43.8 M138.7,41.3c-0.6,0-1.1,0.1-1.8,0.4c0.2-0.7,0.8-1.1,1.7-1.1c0.5,0,1,0.2,1.5,0.6l0,0l0.4-0.5
		l0,0c-0.6-0.5-1.2-0.7-1.9-0.7c-1.4,0-2.4,0.9-2.4,2.2s1.1,2.2,2.6,2.2c1.2,0,2-0.6,2-1.5S139.9,41.3,138.7,41.3"/>
	<polygon class="st0" points="228.3,42.7 227.8,42.7 145.1,42.6 145.1,41.7 227.3,41.8 224.6,21.4 224.6,21.3 227.3,1.2 2.7,1.2 
		5.4,21.4 2.7,41.8 84.8,41.8 84.8,42.7 1.7,42.7 4.5,21.4 1.7,0.3 228.3,0.3 225.5,21.4 	"/>
</g>
</svg>
